<svg width="45" height="45" viewBox="0 0 45 45" fill="none" xmlns="http://www.w3.org/2000/svg">
<rect x="0.302734" y="0.820312" width="44" height="44" rx="8" fill="#EDF8F9"/>
<path d="M34.2355 17.8724C34.1779 16.5945 33.9715 15.7202 33.6786 14.9564C33.3713 14.1686 32.9633 13.4961 32.2959 12.8331C31.6286 12.1702 30.9613 11.7523 30.1739 11.4496C29.4106 11.1518 28.5368 10.95 27.2597 10.8924C25.9779 10.8347 25.5698 10.8203 22.3147 10.8203C19.0549 10.8203 18.6468 10.8347 17.3697 10.8924C16.0927 10.95 15.2189 11.1566 14.4556 11.4496C13.6634 11.7571 12.9913 12.1654 12.3287 12.8331C11.6662 13.5009 11.2485 14.1686 10.9461 14.9564C10.6532 15.7202 10.4468 16.5945 10.3892 17.8724C10.3315 19.155 10.3171 19.5633 10.3171 22.8203C10.3171 26.0821 10.3315 26.4904 10.3892 27.7683C10.4468 29.0461 10.6532 29.9204 10.9461 30.6842C11.2533 31.472 11.6614 32.1446 12.3287 32.8075C12.9913 33.4752 13.6634 33.8884 14.4508 34.191C15.2141 34.4888 16.0879 34.6906 17.3649 34.7483C18.6468 34.8059 19.0549 34.8203 22.3099 34.8203C25.5698 34.8203 25.9779 34.8059 27.2549 34.7483C28.532 34.6906 29.4058 34.484 30.1691 34.191C30.9565 33.8836 31.6286 33.4752 32.2911 32.8075C32.9537 32.1398 33.3713 31.472 33.6738 30.6842C33.9715 29.9204 34.1731 29.0461 34.2307 27.7683C34.2883 26.4856 34.3027 26.0773 34.3027 22.8203C34.3027 19.5633 34.2931 19.1502 34.2355 17.8724ZM32.0799 27.6722C32.0271 28.8443 31.8302 29.4832 31.667 29.9012C31.451 30.4584 31.1869 30.8619 30.7644 31.2847C30.3419 31.7074 29.9435 31.962 29.3818 32.1878C28.9593 32.3511 28.3207 32.5481 27.1541 32.6009C25.8915 32.6586 25.5122 32.673 22.3051 32.673C19.0981 32.673 18.7188 32.6586 17.4562 32.6009C16.2847 32.5481 15.6462 32.3511 15.2285 32.1878C14.6716 31.9716 14.2683 31.7074 13.8458 31.2847C13.4234 30.8619 13.1689 30.4632 12.9433 29.9012C12.78 29.4784 12.5832 28.8395 12.5304 27.6722C12.4728 26.4088 12.4584 26.0293 12.4584 22.8203C12.4584 19.6113 12.4728 19.2318 12.5304 17.9684C12.5832 16.7963 12.78 16.1574 12.9433 15.7394C13.1593 15.1822 13.4234 14.7787 13.8458 14.3559C14.2683 13.9332 14.6668 13.6786 15.2285 13.4528C15.651 13.2895 16.2895 13.0925 17.4562 13.0397C18.7188 12.982 19.0981 12.9676 22.3051 12.9676C25.5122 12.9676 25.8915 12.982 27.1541 13.0397C28.3255 13.0925 28.9641 13.2895 29.3818 13.4528C29.9387 13.669 30.3419 13.9332 30.7644 14.3559C31.1869 14.7787 31.4414 15.1774 31.667 15.7394C31.8302 16.1622 32.0271 16.8011 32.0799 17.9684C32.1375 19.2318 32.1519 19.6113 32.1519 22.8203C32.1519 26.0293 32.1327 26.4088 32.0799 27.6722Z" fill="url(#paint0_linear_1_596)"/>
<path d="M22.3052 16.6523C18.8965 16.6523 16.1407 19.4146 16.1407 22.8205C16.1407 26.2312 18.9013 28.9886 22.3052 28.9886C25.7091 28.9886 28.4696 26.2216 28.4696 22.8205C28.4696 19.4097 25.7139 16.6523 22.3052 16.6523ZM22.3052 26.8221C20.0967 26.8221 18.306 25.0302 18.306 22.8205C18.306 20.6107 20.0967 18.8189 22.3052 18.8189C24.5136 18.8189 26.3044 20.6107 26.3044 22.8205C26.3044 25.0302 24.5136 26.8221 22.3052 26.8221Z" fill="url(#paint1_linear_1_596)"/>
<path d="M28.7096 17.853C29.505 17.853 30.1499 17.2078 30.1499 16.4119C30.1499 15.6159 29.505 14.9707 28.7096 14.9707C27.9141 14.9707 27.2693 15.6159 27.2693 16.4119C27.2693 17.2078 27.9141 17.853 28.7096 17.853Z" fill="#BC30A0"/>
<path d="M10.3027 22.8203C10.3027 26.0821 10.3171 26.4904 10.3747 27.7683C10.4324 29.0461 10.6388 29.9204 10.9317 30.6842C11.2389 31.472 11.647 32.1446 12.3143 32.8075C12.9769 33.4704 13.649 33.8884 14.4364 34.191C15.1997 34.4888 16.0735 34.6906 17.3505 34.7483C18.6324 34.8059 19.0405 34.8203 22.2955 34.8203C25.5554 34.8203 25.9635 34.8059 27.2405 34.7483C28.5176 34.6906 29.3914 34.484 30.1547 34.191C30.9421 33.8836 31.6142 33.4752 32.2767 32.8075C32.9393 32.1446 33.3569 31.472 33.6594 30.6842C33.9571 29.9204 34.1587 29.0461 34.2163 27.7683C34.2739 26.4856 34.2883 26.0773 34.2883 22.8203C34.2883 19.5585 34.2739 19.1502 34.2163 17.8724C34.1587 16.5945 33.9523 15.7202 33.6594 14.9564C33.3521 14.1686 32.9441 13.4961 32.2767 12.8331C31.619 12.1654 30.9469 11.7523 30.1595 11.4496C29.3962 11.1518 28.5224 10.95 27.2453 10.8924C25.9635 10.8347 25.5554 10.8203 22.3003 10.8203C19.0405 10.8203 18.6324 10.8347 17.3553 10.8924C16.0783 10.95 15.2045 11.1566 14.4412 11.4496C13.6538 11.7571 12.9817 12.1654 12.3191 12.8331C11.6566 13.5009 11.2389 14.1686 10.9365 14.9564C10.6388 15.7202 10.4324 16.5945 10.3747 17.8724C10.3171 19.1502 10.3027 19.5585 10.3027 22.8203ZM12.468 22.8203C12.468 19.6161 12.4824 19.2318 12.54 17.9684C12.5928 16.7963 12.7896 16.1574 12.9529 15.7394C13.1689 15.1822 13.433 14.7787 13.8554 14.3559C14.2779 13.9332 14.6764 13.6786 15.2381 13.4528C15.6606 13.2895 16.2991 13.0925 17.4658 13.0397C18.7284 12.982 19.1077 12.9676 22.3147 12.9676C25.5218 12.9676 25.9011 12.982 27.1637 13.0397C28.3351 13.0925 28.9737 13.2895 29.3914 13.4528C29.9483 13.669 30.3515 13.9332 30.774 14.3559C31.1965 14.7787 31.451 15.1774 31.6766 15.7394C31.8398 16.1622 32.0367 16.8011 32.0895 17.9684C32.1471 19.2318 32.1615 19.6113 32.1615 22.8203C32.1615 26.0293 32.1471 26.4088 32.0895 27.6722C32.0367 28.8443 31.8398 29.4832 31.6766 29.9012C31.4606 30.4584 31.1965 30.8619 30.774 31.2847C30.3515 31.7074 29.9531 31.962 29.3914 32.1878C28.9689 32.3511 28.3303 32.5481 27.1637 32.6009C25.9011 32.6586 25.5218 32.673 22.3147 32.673C19.1077 32.673 18.7284 32.6586 17.4658 32.6009C16.2943 32.5481 15.6558 32.3511 15.2381 32.1878C14.6812 31.9716 14.2779 31.7074 13.8554 31.2847C13.433 30.8619 13.1785 30.4632 12.9529 29.9012C12.7896 29.4784 12.5928 28.8395 12.54 27.6722C12.4776 26.4088 12.468 26.0245 12.468 22.8203Z" fill="url(#paint2_linear_1_596)"/>
<defs>
<linearGradient id="paint0_linear_1_596" x1="30.5982" y1="12.6555" x2="13.2358" y2="33.9279" gradientUnits="userSpaceOnUse">
<stop stop-color="#AE3DAE"/>
<stop offset="0.0468721" stop-color="#B23BA6"/>
<stop offset="0.1216" stop-color="#BD368E"/>
<stop offset="0.2148" stop-color="#CE2E69"/>
<stop offset="0.3216" stop-color="#E62335"/>
<stop offset="0.418" stop-color="#FF1800"/>
</linearGradient>
<linearGradient id="paint1_linear_1_596" x1="25.245" y1="17.8733" x2="18.9377" y2="28.4719" gradientUnits="userSpaceOnUse">
<stop stop-color="#E12F6A"/>
<stop offset="0.1705" stop-color="#EA3751"/>
<stop offset="0.3563" stop-color="#F13D3E"/>
<stop offset="0.5467" stop-color="#F64133"/>
<stop offset="0.7469" stop-color="#F7422F"/>
<stop offset="0.7946" stop-color="#F74C2F"/>
<stop offset="0.8743" stop-color="#F7652F"/>
<stop offset="0.9757" stop-color="#F78F2E"/>
<stop offset="1" stop-color="#F79A2E"/>
</linearGradient>
<linearGradient id="paint2_linear_1_596" x1="27.7408" y1="9.83228" x2="17.1166" y2="35.1566" gradientUnits="userSpaceOnUse">
<stop offset="0.2341" stop-color="#9E35A5" stop-opacity="0"/>
<stop offset="0.4512" stop-color="#D42F7F" stop-opacity="0.5"/>
<stop offset="0.7524" stop-color="#F7772E"/>
<stop offset="0.9624" stop-color="#FEF780"/>
</linearGradient>
</defs>
</svg>
