<svg width="45" height="45" viewBox="0 0 45 45" fill="none" xmlns="http://www.w3.org/2000/svg">
<rect x="0.302734" y="0.820312" width="44" height="44" rx="8" fill="#EDF8F9"/>
<g clip-path="url(#clip0_1_592)">
<path d="M33.8084 17.0497C33.5316 16.0217 32.7211 15.2112 31.6931 14.9344C29.815 14.4204 22.3027 14.4204 22.3027 14.4204C22.3027 14.4204 14.7904 14.4204 12.9123 14.9146C11.904 15.1914 11.0737 16.0217 10.797 17.0497C10.3027 18.9278 10.3027 22.8224 10.3027 22.8224C10.3027 22.8224 10.3027 26.7367 10.797 28.595C11.0737 29.623 11.8843 30.4335 12.9123 30.7103C14.8101 31.2243 22.3027 31.2243 22.3027 31.2243C22.3027 31.2243 29.815 31.2243 31.6931 30.7301C32.7211 30.4533 33.5316 29.6427 33.8084 28.6147C34.3026 26.7367 34.3026 22.8421 34.3026 22.8421C34.3026 22.8421 34.3224 18.9278 33.8084 17.0497Z" fill="#FF0000"/>
<path d="M19.9106 26.4201L26.1577 22.8221L19.9106 19.2241V26.4201Z" fill="white"/>
</g>
<defs>
<clipPath id="clip0_1_592">
<rect x="10.3027" y="10.8203" width="24" height="24" rx="6" fill="white"/>
</clipPath>
</defs>
</svg>
