<svg width="45" height="45" viewBox="0 0 45 45" fill="none" xmlns="http://www.w3.org/2000/svg">
<rect x="0.302734" y="0.820312" width="44" height="44" rx="8" fill="#EDF8F9"/>
<g clip-path="url(#clip0_1_594)">
<path d="M27.4946 19.4838C29.0379 20.591 30.9286 21.2424 32.9706 21.2424V17.2989C32.5842 17.299 32.1987 17.2586 31.8206 17.1782V20.2822C29.7788 20.2822 27.8883 19.6308 26.3446 18.5237V26.5712C26.3446 30.5969 23.0927 33.8602 19.0814 33.8602C17.5848 33.8602 16.1937 33.4061 15.0381 32.6274C16.357 33.9807 18.1963 34.8203 20.2312 34.8203C24.2427 34.8203 27.4947 31.557 27.4947 27.5311V19.4838H27.4946ZM28.9132 15.5053C28.1245 14.6405 27.6066 13.523 27.4946 12.2875V11.7803H26.4048C26.6791 13.3506 27.6148 14.6922 28.9132 15.5053ZM17.5752 29.5381C17.1345 28.9583 16.8964 28.2489 16.8974 27.5196C16.8974 25.6783 18.3848 24.1854 20.2199 24.1854C20.5619 24.1854 20.9018 24.2379 21.2277 24.3417V20.3101C20.8469 20.2577 20.4625 20.2355 20.0782 20.2436V23.3816C19.7521 23.2778 19.412 23.2251 19.0699 23.2254C17.2348 23.2254 15.7475 24.7182 15.7475 26.5597C15.7475 27.8617 16.491 28.989 17.5752 29.5381Z" fill="#FF004F"/>
<path d="M26.3445 18.5236C27.8882 19.6307 29.7786 20.2822 31.8205 20.2822V17.1781C30.6807 16.9344 29.6718 16.3367 28.9131 15.5053C27.6146 14.6921 26.679 13.3505 26.4047 11.7803H23.5421V27.5309C23.5356 29.3671 22.0507 30.8539 20.2196 30.8539C19.1406 30.8539 18.1819 30.3377 17.5748 29.5381C16.4907 28.989 15.7472 27.8616 15.7472 26.5597C15.7472 24.7184 17.2345 23.2255 19.0696 23.2255C19.4212 23.2255 19.7601 23.2805 20.0779 23.3817V20.2437C16.1372 20.3254 12.9679 23.5568 12.9679 27.531C12.9679 29.5149 13.7571 31.3134 15.0381 32.6274C16.1936 33.4061 17.5847 33.8603 19.0814 33.8603C23.0927 33.8603 26.3445 30.5969 26.3445 26.5712V18.5236H26.3445Z" fill="black"/>
<path d="M31.8205 17.1781V16.3388C30.7927 16.3404 29.7851 16.0515 28.9131 15.5052C29.6851 16.3534 30.7015 16.9382 31.8205 17.1781ZM26.4047 11.7803C26.3785 11.6302 26.3584 11.4792 26.3445 11.3275V10.8203H22.392V26.5711C22.3857 28.4071 20.9009 29.8939 19.0696 29.8939C18.532 29.8939 18.0244 29.7658 17.5748 29.5382C18.182 30.3377 19.1406 30.8539 20.2196 30.8539C22.0506 30.8539 23.5357 29.3672 23.5421 27.531V11.7803H26.4047ZM20.0781 20.2437V19.3502C19.7479 19.3049 19.4149 19.2822 19.0815 19.2823C15.0699 19.2823 11.818 22.5457 11.818 26.5711C11.818 29.0948 13.0961 31.319 15.0382 32.6273C13.7572 31.3133 12.968 29.5147 12.968 27.5309C12.968 23.5568 16.1372 20.3254 20.0781 20.2437Z" fill="#00F2EA"/>
</g>
<defs>
<clipPath id="clip0_1_594">
<rect x="10.3027" y="10.8203" width="24" height="24" rx="6" fill="white"/>
</clipPath>
</defs>
</svg>
