<svg width="300" height="113" viewBox="0 0 300 113" fill="none" xmlns="http://www.w3.org/2000/svg">
<path fill-rule="evenodd" clip-rule="evenodd" d="M199.89 51.5921C200.025 56.7658 199.44 61.9047 198.226 66.9216C195.731 78.5993 189.232 88.9119 180.38 96.8003C170.021 106.294 156.347 113.6 141.977 112.73C139.772 112.589 136.999 112.533 132.494 110.716C128.875 108.819 125.751 106.1 123.289 102.826C121.306 100.425 119.59 97.8072 118.347 94.9454C117.704 93.4622 117.243 91.7583 117.677 90.155C118.425 87.39 121.542 86.8653 123.777 88.2226C124.582 88.7299 125.265 89.3902 125.908 90.0872C126.357 90.5229 126.789 91.0806 127.24 91.6247C126.774 90.4726 125.959 89.3495 125.273 88.4627C123.287 85.9765 121.075 83.6782 118.862 81.3953C115.421 77.8248 112.453 73.7954 110.079 69.4426C104.677 59.008 104.257 46.5132 106.929 35.2266C108.375 28.8562 110.892 22.5324 115.47 17.7536C117.646 15.4688 120.611 13.3157 123.931 13.8617C126.278 14.1618 128.391 15.8464 128.997 18.166C130.015 22.1296 127.852 25.9867 125.963 29.3326C124.466 31.9233 123.012 34.5431 121.736 37.252C118.746 43.5042 116.521 50.3044 116.651 57.3002C116.742 59.9123 116.926 62.5766 117.625 65.1034C118.934 62.7644 121.699 61.9841 123.86 64.7162C125.715 66.7919 125.968 69.7214 127.24 72.1011C130.923 66.6176 136.304 63.2039 143.046 63.3453C145.554 63.4653 148.315 63.8933 150.383 65.3958C151.913 64.0307 153.194 62.6753 154.37 61.045C156.794 57.2634 158.424 52.8332 158.314 48.3004C158.041 42.722 155.779 37.4069 152.885 32.6978C151.053 29.8205 148.935 27.1194 146.545 24.6836C146.028 24.0078 144.843 23.303 144.748 22.4142C144.485 21.661 144.628 20.7219 145.163 20.1488C147.622 17.5542 152.763 20.3734 155.526 21.3841C156.18 21.6572 156.835 21.9302 157.495 22.1896C157.731 22.269 157.977 22.4413 158.221 22.3019C159.929 21.3319 161.335 19.9087 162.872 18.7004C165.321 16.6441 167.633 14.8434 170.156 12.9729C170.297 11.8712 170.119 10.754 170.106 9.64835C170.05 7.99476 169.513 2.41633 170.181 1.45594C172.962 -1.97322 183.84 9.47989 185.811 11.8247C190.758 17.7517 194.067 24.8966 196.445 32.1963C197.868 36.5898 199.053 41.0819 199.592 45.6786C199.597 45.9904 199.665 46.3718 199.719 46.7649C199.754 46.8714 199.774 46.9876 199.77 47.1115C199.772 47.1735 199.774 47.2335 199.777 47.2954C199.783 47.3864 199.787 47.4755 199.789 47.5626C199.849 48.9045 199.872 50.2483 199.89 51.5921ZM117.071 76.1828C119.807 79.5965 123.07 82.5416 125.883 85.8894C125.817 85.7597 125.753 85.6299 125.686 85.5021C123.933 82.1756 121.404 79.3544 119.404 76.1867C118.024 73.929 116.835 71.3286 116.825 68.6488C116.748 68.5752 116.672 68.488 116.604 68.3835C114.717 64.3192 114.498 59.6431 114.581 55.2245C114.92 47.3264 117.911 39.8311 121.559 32.9089C123.112 29.8825 125.064 27.0555 126.354 23.8974C127.184 21.7346 127.798 18.8592 125.974 17.0352C124.777 15.9316 122.983 15.6295 121.447 16.1058C119.716 16.6073 118.351 17.8756 117.085 19.1013C116.419 19.7944 115.799 20.5225 115.222 21.2796C115.687 22.3271 116.542 24.6158 117.296 28.5735C118.394 34.3475 115.367 39.6375 113.119 42.4141C111.061 44.9564 108 50.3064 107.5 51.1835C107.763 56.2527 108.793 61.2657 110.73 65.9786C112.366 69.646 114.589 73.0364 117.071 76.1828ZM194.259 73.1041C196.497 66.5808 197.868 59.6857 197.8 52.7848C197.787 51.2648 197.768 49.7448 197.713 48.2229C197.717 48.1687 197.717 48.1106 197.715 48.0545C197.582 47.5433 197.675 46.9276 197.562 46.4222C197.44 45.3282 197.282 44.24 197.103 43.1537C196.168 37.9006 194.544 32.7946 192.658 27.8126C191 23.6786 188.917 19.6705 186.347 16.0226C179.398 20.4063 170.336 15.4669 170.332 15.4649C170.212 15.5521 170.096 15.6392 169.984 15.7283C169.031 16.4389 168.113 17.1476 167.221 17.8562C165.439 19.2891 163.687 20.7587 161.921 22.2109C160.556 23.2352 159.011 24.9759 157.139 24.3002C156.701 24.1917 156.271 23.9865 155.857 23.8122C155.266 23.5663 154.681 23.3127 154.093 23.0629C152.648 22.4491 151.183 21.8353 149.657 21.448C148.845 21.2428 147.6 20.9078 146.851 21.4693C146.522 21.7172 147.163 22.3213 147.339 22.5149C147.606 22.8092 147.906 23.0745 148.187 23.3591C148.665 23.8471 149.142 24.337 149.591 24.854C156.405 32.6668 162.502 43.7346 159.671 54.3532C158.521 58.4891 156.467 62.4527 153.365 65.4597C152.745 65.9844 151.847 67.1752 151.03 67.4676C150.758 67.7097 150.369 67.822 149.963 67.6574C149.833 67.5606 149.701 67.4657 149.568 67.3728C149.508 67.305 149.453 67.2294 149.409 67.1481C149.423 67.1752 149.436 67.2024 149.451 67.2295C149.482 67.274 149.517 67.3204 149.556 67.365C148.348 66.5285 146.991 65.9457 145.525 65.7076C141.389 64.9272 136.993 65.9031 133.568 68.3467C131.638 69.6924 130.244 71.6132 128.848 73.4682C128.226 74.2059 127.082 74.5195 126.234 73.9832C125.151 73.2842 124.845 71.9366 124.423 70.7999C123.713 68.8947 122.988 65.7289 120.818 65.0724C118.717 65.4849 118.746 68.7804 119.149 70.4224C119.677 72.7459 121.023 74.9339 122.359 76.8276C124.942 80.3671 127.674 83.8931 129.126 88.0813C129.765 89.8936 130.224 91.7815 130.408 93.6984C130.495 93.6984 130.584 93.6984 130.677 93.6907C132.362 93.2066 133.682 91.8977 135.08 90.8908C139.569 87.4907 144.595 84.1255 150.329 83.5349C155.799 82.9966 161.414 84.9793 165.416 88.728C165.91 89.2237 166.551 89.944 166.603 90.6294C166.665 91.2316 166.136 91.7854 165.53 91.7524C164.725 91.7311 164.663 91.0593 164.254 90.5636C163.091 89.2624 161.565 88.3465 160.051 87.512C156.248 85.4924 151.663 85.0007 147.525 86.2011C143.794 87.4462 140.374 89.5257 137.239 91.8764C134.711 93.65 131.857 96.9611 128.482 95.3927C126.377 94.3916 125.225 92.2172 123.554 90.6914C121.867 88.9933 119.158 89.1636 119.66 92.1068C120.349 95.1525 122.158 97.8498 124.003 100.324C125.385 102.129 126.816 103.908 128.505 105.44C130.166 106.97 132.108 108.153 134.118 109.167C136.825 105.965 145.354 96.4944 153.75 93.8301C162.132 91.1696 176.095 92.8987 180.724 93.5842C186.675 87.8586 191.477 80.8919 194.259 73.1041ZM166.545 49.2414C172.089 49.2104 176.149 53.3928 177.007 58.7001C177.255 60.1659 177.274 61.6607 177.26 63.1439C177.224 65.9341 176.976 68.7591 176.006 71.3963C174.823 75.0772 171.788 78.6651 167.552 77.9351C166.067 77.695 164.742 76.8431 163.757 75.7278C161.89 73.6385 161.608 70.7032 161.728 68.0195C161.811 65.541 162.086 63.049 161.772 60.5764C161.613 59.2055 163.623 58.9093 163.852 60.2705C164.181 62.8573 163.925 65.4578 163.828 68.0485C163.788 69.8415 163.79 71.7294 164.653 73.352C164.93 73.8709 165.265 74.3085 165.639 74.6706C165.674 73.9116 165.666 73.1506 165.65 72.3896C165.662 71.7061 165.534 71.0226 165.571 70.3449C165.784 69.0999 167.627 69.2258 167.658 70.4979C167.79 72.2638 167.804 74.0374 167.68 75.8033C168.235 75.9311 168.81 75.9408 169.378 75.8362C169.37 75.7781 169.366 75.722 169.368 75.662C169.442 74.049 169.275 72.4381 169.056 70.8406C168.874 69.5453 170.714 69.1309 171.107 70.3798C171.196 71.133 171.523 73.2726 171.508 74.8042C171.752 74.6009 171.988 74.3666 172.209 74.1033C174.251 71.4583 174.952 68.0272 175.109 64.751C175.194 62.2203 175.305 59.5928 174.443 57.1685C173.357 53.9137 170.47 51.4643 166.979 51.3558C166.105 51.2358 164.835 51.8263 164.479 50.6704C164.2 49.3653 165.567 49.1969 166.545 49.2414ZM173.09 31.5109C174.28 30.8932 176.825 28.8833 177.419 31.1294C177.574 32.4597 177.965 35.1705 176.019 35.2363C175.677 35.2092 175.375 35.0233 175.063 34.8936C174.515 34.6651 173.953 34.4792 173.434 34.1868C172.228 33.6059 171.661 32.2312 173.09 31.5109ZM195.283 57.4919C196.397 58.1832 195.477 59.2326 195.099 60.071C194.491 61.38 194.151 62.7857 193.893 64.1992C193.248 67.8239 192.917 71.6636 190.882 74.8371C189.701 76.7947 187.527 78.4831 185.131 78.1675C180.225 77.242 179.148 71.4118 179.203 67.181C179.183 62.7644 179.677 58.2664 181.193 54.0995C182.63 50.1011 187.281 44.9429 191.825 45.2314C193.184 45.6632 192.613 47.4503 191.434 47.2935C189.546 47.4019 187.889 48.5773 186.539 49.8242C183.791 52.2911 182.539 55.8887 181.942 59.4417C181.278 63.5621 180.482 70.8038 182.926 74.353C182.905 72.8795 182.893 71.4041 182.889 69.9306C182.874 68.6313 184.762 68.4551 184.98 69.7466C185.005 70.2191 184.99 70.6838 184.996 71.1562C185.015 72.6472 185.005 74.1401 185.056 75.631C185.064 75.7549 185.046 75.8711 185.009 75.9776C185.623 76.1441 186.247 76.0879 186.845 75.8382C186.835 75.7801 186.828 75.722 186.824 75.66C186.76 73.6386 186.731 71.6171 186.609 69.6014C186.539 68.5907 187.84 68.033 188.485 68.8404C188.665 69.0631 188.743 69.3632 188.71 69.6401C188.723 70.1416 188.779 70.6412 188.795 71.1427C188.837 72.1166 188.857 73.0925 188.88 74.0665C188.921 74.0084 188.959 73.9503 188.998 73.8903C190.146 72.1186 190.735 70.0642 191.118 68.0059C191.666 65.1422 191.874 62.1564 193.07 59.4611C193.525 58.5936 193.982 56.8646 195.283 57.4919ZM174.776 40.2842C176.122 40.1138 177.431 39.6878 178.622 39.0391C179.487 38.5493 180.264 37.8967 180.899 37.13C181.52 36.4619 181.946 34.9904 183.114 35.579C183.604 35.8404 183.836 36.5084 183.546 37.0022C182.639 38.5512 181.35 39.8872 179.793 40.7896C178.482 41.5389 177.04 42.0384 175.553 42.2979C174.526 42.4741 172.681 42.7123 172.896 41.1245C173.165 40.137 173.994 40.3597 174.776 40.2842ZM146.557 21.5642C146.553 21.5623 146.549 21.5603 146.549 21.5603C146.512 21.539 146.473 21.5177 146.437 21.4984L146.427 21.4945C146.435 21.5003 146.439 21.5023 146.444 21.5081C146.501 21.5352 146.551 21.5642 146.601 21.5971C146.586 21.5874 146.57 21.5758 146.557 21.5642Z" fill="#B7EBE4"/>
<path d="M12.126 64.6707C13.1607 64.6707 13.9955 64.2954 14.6291 63.5433C15.2641 62.7913 15.7922 61.7809 16.216 60.5108C16.6384 59.2421 16.9795 57.7736 17.2378 56.1053C17.4961 54.4356 17.743 52.6617 17.9784 50.7823C18.0726 49.936 18.1668 48.937 18.261 47.7854C18.3538 46.6337 18.4609 45.1524 18.5779 43.3428C18.6949 41.5333 18.8361 39.2771 19.0002 36.5756C19.1658 33.8727 19.3656 30.5475 19.5997 26.5988C19.6468 25.9409 19.7181 25.4942 19.8108 25.2587C19.905 25.0247 20.2104 24.9062 20.7284 24.9062H24.6059C26.2043 24.9062 27.4615 25.0475 28.3777 25.3301C29.2939 25.6112 29.9874 25.9637 30.457 26.3876C30.9279 26.81 31.2091 27.2681 31.3032 27.7619C31.3974 28.2556 31.4445 28.738 31.4445 29.2075C31.4445 29.677 31.4217 30.7588 31.3746 32.4513C31.3275 34.1424 31.2562 36.1046 31.162 38.338C31.0692 40.57 30.9393 42.909 30.7752 45.3522C30.6097 47.7968 30.4341 50.0059 30.2457 51.9796C29.9646 54.6597 29.5293 57.3969 28.9414 60.1939C28.3548 62.991 27.403 65.5398 26.0858 67.8432C24.77 70.1465 23.019 72.0274 20.8341 73.4844C18.6478 74.9415 15.8164 75.6693 12.3386 75.6693C10.4106 75.6693 8.68382 75.4338 7.1554 74.9643C5.62842 74.4948 4.3355 73.8484 3.27802 73.0249C2.22055 72.2029 1.4099 71.2396 0.846203 70.1351C0.282502 69.0305 0 67.8674 0 66.6444C0 65.517 0.222618 64.4952 0.669297 63.5776C1.11598 62.6614 1.71537 61.8979 2.46745 61.2871C3.21952 60.6763 4.07718 60.2054 5.04046 59.8771C6.00518 59.5475 7.00268 59.3833 8.03732 59.3833C8.31988 59.3833 8.51974 59.6531 8.63676 60.1939C8.75378 60.7348 8.91934 61.3456 9.13055 62.0263C9.34175 62.7085 9.65856 63.3193 10.0824 63.8601C10.5048 64.401 11.187 64.6707 12.126 64.6707Z" fill="#B7EBE4"/>
<path d="M48.3655 75.6693C45.1217 75.6693 42.4317 75.2112 40.2925 74.295C38.1547 73.3774 36.4507 72.1201 35.1806 70.5232C33.9119 68.9249 33.0185 67.0568 32.5019 64.9176C31.9853 62.7784 31.7271 60.4879 31.7271 58.0433C31.7271 55.2234 32.0667 52.462 32.7489 49.7591C33.431 47.0561 34.5941 44.6472 36.2395 42.5323C37.8835 40.4173 40.0584 38.7134 42.7599 37.4218C45.4628 36.1289 48.835 35.4824 52.8779 35.4824C58.8004 35.4824 63.0417 36.9281 65.6033 39.8179C68.1649 42.7092 69.4465 46.7636 69.4465 51.9796C69.4465 53.4367 69.3409 55.0464 69.1283 56.8103C68.9171 58.5728 68.5174 60.3224 67.9295 62.062C67.3429 63.8016 66.5437 65.4927 65.5334 67.1382C64.523 68.7836 63.2415 70.2407 61.6902 71.5094C60.139 72.778 58.2709 73.7898 56.086 74.5419C53.8997 75.294 51.3267 75.6693 48.3655 75.6693ZM51.6792 44.8598C49.8925 44.8598 48.4711 45.3179 47.4136 46.2341C46.3562 47.1503 45.557 48.2549 45.0161 49.5478C44.4767 50.8408 44.1242 52.2037 43.9586 53.6365C43.7945 55.0707 43.7118 56.2809 43.7118 57.2684C43.7118 60.3695 44.2055 62.65 45.193 64.107C46.1792 65.5641 47.5905 66.2919 49.4229 66.2919C51.0684 66.2919 52.4198 65.7753 53.4773 64.7406C54.5348 63.7074 55.3568 62.4616 55.9447 61.0045C56.5327 59.5475 56.9323 58.0205 57.1435 56.4221C57.3548 54.8238 57.4603 53.4838 57.4603 52.4034C57.4603 50.053 57.0251 48.2078 56.156 46.8692C55.2869 45.5292 53.7942 44.8598 51.6792 44.8598Z" fill="#B7EBE4"/>
<path d="M83.97 42.6736C83.97 43.7554 83.8988 45.0355 83.7589 46.5168C83.6176 47.9967 83.4649 49.478 83.2993 50.9579C83.1352 52.4392 82.9826 53.8249 82.8413 55.1179C82.7014 56.4108 82.63 57.4083 82.63 58.1148C82.63 59.9 83.0653 61.2287 83.9344 62.0978C84.8035 62.9669 85.8738 63.4021 87.1425 63.4021C89.3516 63.4021 91.1141 62.2505 92.4299 59.9471C93.7457 57.6438 94.5691 54.5884 94.8973 50.7824L96.0261 37.5975C96.0732 37.0809 96.2487 36.7155 96.5541 36.5043C96.8595 36.2931 97.2007 36.1875 97.5774 36.1875H100.115C101.102 36.1875 102.03 36.2703 102.9 36.4344C103.77 36.5985 104.533 36.9039 105.191 37.3506C105.849 37.7973 106.367 38.3966 106.742 39.1487C107.119 39.9008 107.306 40.8641 107.306 42.0386C107.306 42.5095 107.272 43.39 107.2 44.683C107.13 45.9759 107.013 47.8326 106.848 50.2529C106.684 52.6733 106.461 55.7287 106.178 59.4177C105.896 63.1082 105.568 67.6092 105.191 72.9194C104.957 76.0219 104.263 78.595 103.112 80.64C101.96 82.685 100.514 84.3062 98.7761 85.5049C97.0365 86.7037 95.0857 87.5371 92.9237 88.008C90.7616 88.4776 88.5524 88.713 86.2962 88.713C83.8987 88.713 81.7025 88.5018 79.7045 88.078C77.7066 87.6556 75.9798 87.0676 74.5227 86.3155C73.0656 85.5634 71.9254 84.6943 71.1034 83.7068C70.28 82.7192 69.869 81.6618 69.869 80.5344C69.869 79.641 70.0687 78.8661 70.4683 78.2082C70.8679 77.5489 71.3974 77.0094 72.0553 76.5856C72.7131 76.1632 73.4767 75.8464 74.3458 75.6337C75.2163 75.4225 76.1211 75.3169 77.0601 75.3169C77.531 75.3169 77.8706 75.5524 78.0833 76.0219C78.2945 76.4914 78.6228 77.0209 79.0695 77.6088C79.5161 78.1954 80.2325 78.7248 81.22 79.1943C82.2076 79.6653 83.6875 79.8993 85.6626 79.8993C87.4008 79.8993 88.8108 79.4769 89.8925 78.6306C90.9728 77.7844 91.8076 76.7041 92.3956 75.3869C92.9821 74.0711 93.3703 72.6383 93.5587 71.087C93.7456 69.5358 93.8398 68.0544 93.8398 66.6445C93.0877 67.9617 92.2543 69.0306 91.3381 69.8526C90.4205 70.676 89.4687 71.3096 88.4826 71.7563C87.495 72.203 86.5075 72.497 85.5213 72.6383C84.5338 72.7781 83.5933 72.8495 82.7014 72.8495C80.9618 72.8495 79.3748 72.614 77.942 72.1445C76.5078 71.6736 75.2748 70.9101 74.2401 69.8526C73.2069 68.7951 72.4078 67.4208 71.8426 65.7283C71.2789 64.0358 70.9978 61.9922 70.9978 59.5947C70.9978 58.7013 71.0434 57.5154 71.1376 56.0341C71.2318 54.5542 71.3503 52.8845 71.4901 51.0278C71.6314 49.1712 71.7841 47.1618 71.9497 44.9998C72.1138 42.8378 72.2893 40.6286 72.4777 38.3724C72.5719 36.9153 73.2298 36.1875 74.4514 36.1875H76.7076C78.2117 36.1875 79.4348 36.3288 80.3738 36.6099C81.3143 36.8925 82.0549 37.3035 82.5943 37.8444C83.1352 38.3852 83.4991 39.0659 83.6875 39.8894C83.8759 40.7114 83.97 41.6404 83.97 42.6736Z" fill="#B7EBE4"/>
<path d="M219.768 71.5447C221.694 71.5447 223.327 71.2621 224.667 70.6984C226.007 70.1347 227.146 69.4996 228.086 68.7947C229.027 68.0897 229.861 67.456 230.589 66.8909C231.318 66.3272 232.058 66.0461 232.81 66.0461C233.75 66.0461 234.22 66.7511 234.22 68.161C234.22 68.9131 234.126 69.8179 233.939 70.8754C233.75 71.9328 233.492 73.1187 233.162 74.4359C232.975 75.2351 232.516 76.1042 231.788 77.0447C231.059 77.9837 230.06 78.8656 228.791 79.6876C227.522 80.5111 225.96 81.1918 224.103 81.7327C222.246 82.2735 220.12 82.5433 217.723 82.5433C215.325 82.5433 212.928 82.1908 210.531 81.4858C208.134 80.7808 205.995 79.582 204.115 77.8895C202.234 76.1984 200.707 73.9179 199.533 71.0509C198.357 68.1839 197.77 64.589 197.77 60.2635C197.77 58.7137 197.876 56.9155 198.087 54.8705C198.298 52.8255 198.71 50.7234 199.32 48.5599C199.933 46.3979 200.79 44.2715 201.895 42.1794C202.999 40.0887 204.421 38.2206 206.16 36.5752C207.898 34.9298 210.026 33.6026 212.541 32.5922C215.055 31.5804 218.051 31.0752 221.53 31.0752C224.303 31.0752 226.712 31.4049 228.757 32.0627C230.8 32.7206 232.493 33.6254 233.833 34.7771C235.172 35.9287 236.159 37.2802 236.794 38.8314C237.428 40.3827 237.745 42.0267 237.745 43.7663C237.745 46.7746 236.864 48.9724 235.102 50.3581C233.339 51.7452 230.836 52.4388 227.592 52.4388C226.559 52.4388 225.913 52.356 225.654 52.1919C225.396 52.0263 225.266 51.6867 225.266 51.1686C225.219 49.5717 225.172 48.1846 225.125 47.0101C225.078 45.8342 224.914 44.8595 224.631 44.0831C224.35 43.3082 223.915 42.7445 223.327 42.392C222.74 42.0395 221.93 41.8626 220.895 41.8626C219.391 41.8626 218.111 42.1794 217.053 42.8145C215.994 43.4495 215.102 44.2715 214.373 45.2819C213.645 46.2923 213.057 47.4325 212.611 48.7012C212.164 49.9713 211.812 51.2628 211.553 52.5786C211.295 53.8958 211.131 55.1645 211.059 56.3861C210.99 57.6091 210.954 58.6666 210.954 59.5585C210.954 63.884 211.67 66.9623 213.105 68.7947C214.537 70.6285 216.759 71.5447 219.768 71.5447Z" fill="#B7EBE4"/>
<path d="M236.476 73.1659C236.476 68.936 238.38 65.6223 242.187 63.2248C245.995 60.8287 251.612 59.5358 259.037 59.3474C259.084 58.8308 259.12 58.3955 259.144 58.043C259.167 57.6905 259.178 57.2567 259.178 56.7387C259.178 55.2345 258.897 54.0358 258.332 53.1438C257.768 52.2505 256.594 51.8038 254.807 51.8038C253.821 51.8038 253.022 51.9451 252.409 52.2262C251.799 52.5088 251.305 52.8969 250.93 53.3907C250.553 53.8831 250.247 54.4824 250.013 55.1874C249.778 55.8924 249.567 56.6687 249.378 57.515C249.284 57.9374 249.073 58.2086 248.743 58.3256C248.415 58.4426 247.898 58.5011 247.193 58.5011C242.398 58.5011 240.001 56.6916 240.001 53.0725C240.001 51.6154 240.342 50.2297 241.024 48.9125C241.705 47.5967 242.715 46.4579 244.055 45.4932C245.395 44.5299 247.075 43.7664 249.096 43.2027C251.118 42.639 253.468 42.3564 256.147 42.3564C261.364 42.3564 265.148 43.4368 267.498 45.5988C269.848 47.7623 271.023 50.8163 271.023 54.765C271.023 55.2816 270.964 56.2107 270.847 57.5493C270.729 58.8893 270.588 60.2993 270.424 61.7806C270.259 63.2605 270.118 64.659 270.001 65.9748C269.883 67.2906 269.824 68.2082 269.824 68.7248C269.824 69.8993 270.035 70.7342 270.459 71.2279C270.882 71.7217 271.364 72.0614 271.905 72.2497C272.444 72.4381 272.927 72.5794 273.349 72.6736C273.773 72.7663 273.984 73.0018 273.984 73.3786C273.984 74.4118 273.843 75.4692 273.562 76.551C273.279 77.6313 272.821 78.6189 272.186 79.5122C271.552 80.4041 270.682 81.1334 269.577 81.6971C268.473 82.2608 267.121 82.5433 265.524 82.5433C263.268 82.5433 261.576 82.0025 260.447 80.9222C259.319 79.8404 258.567 78.3363 258.192 76.4097C257.063 78.0551 255.595 79.4879 253.785 80.711C251.976 81.9326 249.614 82.5433 246.7 82.5433C245.29 82.5433 243.961 82.3792 242.715 82.0496C241.471 81.7213 240.389 81.1805 239.473 80.4284C238.557 79.6763 237.827 78.7016 237.287 77.5029C236.747 76.3041 236.476 74.8585 236.476 73.1659ZM258.403 65.1285C257.18 65.1285 255.983 65.2227 254.807 65.4111C253.632 65.5995 252.586 65.8935 251.67 66.2916C250.753 66.6912 250.013 67.2207 249.45 67.8786C248.884 68.5364 248.603 69.3356 248.603 70.2761C248.603 71.3564 248.943 72.1085 249.625 72.5323C250.307 72.9547 251.047 73.1659 251.846 73.1659C252.598 73.1659 253.35 73.0018 254.102 72.6736C254.854 72.3439 255.523 71.8387 256.111 71.1566C256.699 70.4759 257.204 69.641 257.627 68.6549C258.051 67.6674 258.309 66.4914 258.403 65.1285Z" fill="#B7EBE4"/>
<path d="M290.623 52.5786C290.481 54.3653 290.329 56.1277 290.165 57.8674C290 59.6056 289.848 61.251 289.706 62.8022C289.565 64.3535 289.46 65.7392 289.39 66.9622C289.318 68.1838 289.284 69.1243 289.284 69.7822C289.284 71.0037 289.424 71.8143 289.706 72.2139C289.989 72.6135 290.459 72.8133 291.116 72.8133C291.633 72.8133 292.08 72.7191 292.456 72.5322C292.832 72.3438 293.184 72.1326 293.514 71.8971C293.842 71.6616 294.136 71.4504 294.394 71.2621C294.654 71.0751 294.947 70.9809 295.276 70.9809C295.605 70.9809 295.911 71.1693 296.193 71.5446C296.475 71.9214 296.616 72.7905 296.616 74.1533C296.616 76.7378 295.911 78.7828 294.5 80.287C293.09 81.7911 290.67 82.5432 287.239 82.5432C283.855 82.5432 281.352 81.7555 279.73 80.1814C278.108 78.6073 277.298 76.1984 277.298 72.9546C277.298 72.2496 277.334 71.4147 277.403 70.4515C277.473 69.4882 277.58 68.2309 277.72 66.6797C277.862 65.1284 278.039 63.2247 278.25 60.9699C278.461 58.7136 278.685 55.9165 278.919 52.5786H275.183C274.806 52.5786 274.584 52.4972 274.514 52.3331C274.442 52.1676 274.407 51.9207 274.407 51.5924L274.619 47.9962C274.666 47.3854 274.748 46.786 274.866 46.198C274.983 45.6115 275.219 45.0821 275.571 44.6125C275.924 44.1416 276.429 43.7663 277.087 43.4837C277.745 43.2026 278.614 43.0613 279.695 43.0613C280.024 42.215 280.4 41.2046 280.823 40.0302C281.247 38.8542 281.669 37.7154 282.092 36.6108C282.515 35.5063 282.926 34.5772 283.326 33.8252C283.726 33.0731 284.089 32.6978 284.419 32.6978H286.463C288.438 32.6978 289.801 33.3086 290.553 34.5301C291.305 35.7517 291.68 37.2088 291.68 38.9013C291.68 39.8418 291.61 41.2275 291.469 43.0613H298.873C299.623 43.0613 300 43.391 300 44.0488L299.717 47.8549C299.623 49.2649 299.237 50.4051 298.554 51.2742C297.874 52.1447 296.475 52.5786 294.36 52.5786H290.623Z" fill="#B7EBE4"/>
</svg>
