<svg width="40" height="32" viewBox="0 0 40 32" fill="none" xmlns="http://www.w3.org/2000/svg">
<path d="M40 5.22254L36.1635 8.49634C34.2874 10.0986 33.3501 12.0589 33.3501 14.3789C33.3501 15.7766 34.185 17.397 35.8565 19.2368C37.5264 21.0783 38.3631 22.7664 38.3631 24.301C38.3631 29.3139 35.8913 31.8204 30.9459 31.8204C25.6607 31.8204 23.0171 28.8024 23.0171 22.7664C23.0171 13.7305 27.5351 6.3644 36.5727 0.669922L40 5.22254ZM16.9812 5.22254L13.1463 8.49634C11.2701 10.0986 10.3329 12.0589 10.3329 14.3789C10.3329 15.7766 11.1679 17.397 12.8394 19.2368C14.5093 21.0783 15.3443 22.7664 15.3443 24.301C15.3443 29.3139 12.8724 31.8204 7.92869 31.8204C2.64179 31.8204 0 28.8024 0 22.7664C0 13.7305 4.51794 6.3644 13.5539 0.669922L16.9812 5.22254Z" fill="#F6C956"/>
</svg>
